<svg id="Ebene_1" data-name="Ebene 1" xmlns="http://www.w3.org/2000/svg" viewBox="0 0 901 378.52"><defs><style>.cls-1,.cls-3,.cls-4,.cls-5,.cls-6,.cls-7{fill:#005b52;}.cls-2,.cls-3,.cls-4,.cls-5,.cls-6,.cls-7{isolation:isolate;}.cls-3,.cls-4,.cls-5,.cls-6,.cls-7{font-size:125.02px;}.cls-3,.cls-4,.cls-5,.cls-6{font-family:Arial-ItalicMT, Arial;font-style:italic;}.cls-3{letter-spacing:0.02em;}.cls-5{letter-spacing:-0.02em;}.cls-6{letter-spacing:-0.01em;}.cls-7{font-family:BrushScriptMT, Brush Script MT;}</style></defs><g id="Truck"><polyline class="cls-1" points="316 221 313 233 892 233"/><polyline class="cls-1" points="322 173 319 185 898 192"/><polyline class="cls-1" points="325 129 322 141 898 154"/><polyline class="cls-1" points="331 80 328 92 898 112"/><polyline class="cls-1" points="336 33 333 45 901 74"/><polygon class="cls-1" points="279 233 299 233 326 0 307 0 279 233"/><path class="cls-1" d="M270,196,296,33l-52,1s-40,2-65,19-30,34-30,34l89-2-76-3s7.73-17.67,32-27a172.88,172.88,0,0,1,49-11h38Z"/><path class="cls-1" d="M238,93l-95,2s-26-2-38,26c-8.85,20.66-11,30-11,30l-26,1s-33-1-53,36C.11,215.54,0,232,0,232l96,1s11-35,37-35c38,0,48,29,48,29s-3-37-49-37c-31,0-39,31-39,31H21s7-37,22-47a59.53,59.53,0,0,1,30-10l126-4,10-50-77,2s2-9,10-11a88.63,88.63,0,0,1,18-2Z"/></g><g class="cls-2"><text class="cls-3" transform="translate(285.87 344.15)">C</text><text class="cls-4" transform="translate(366.01 344.15)">a</text><text class="cls-5" transform="translate(424.89 344.15)">r</text><text class="cls-4" transform="translate(459.4 344.15)">go</text><text class="cls-6" transform="translate(583.8 344.15)">n</text><text class="cls-4" transform="translate(646.06 344.15)">aut</text></g><text class="cls-7" transform="translate(63.83 343.51)">My</text></svg>