<svg xmlns="http://www.w3.org/2000/svg" xmlns:xlink="http://www.w3.org/1999/xlink" width="309" height="90" viewBox="0 0 309 90">
  <defs>
    <clipPath id="clip-path">
      <rect id="Rectangle_1" data-name="Rectangle 1" width="309" height="90" transform="translate(0.445 0.379)" fill="#fff" stroke="#707070" stroke-width="1"/>
    </clipPath>
  </defs>
  <g id="Mask_Group_1" data-name="Mask Group 1" transform="translate(-0.445 -0.379)" clip-path="url(#clip-path)">
    <g id="semi_androidMyCargonaut" transform="translate(43.634 0.174)">
      <g id="Truck">
        <path id="Path_9" data-name="Path 9" d="M480.536,338.77l-.74,2.914h142.77" transform="translate(-402.617 -285.1)" fill="#005b52"/>
        <path id="Path_10" data-name="Path 10" d="M489.733,265.191l-.74,2.914,142.77,1.7" transform="translate(-410.335 -223.178)" fill="#005b52"/>
        <path id="Path_11" data-name="Path 11" d="M494.332,197.744l-.74,2.914,142.03,3.157" transform="translate(-414.194 -166.416)" fill="#005b52"/>
        <path id="Path_12" data-name="Path 12" d="M503.53,122.632l-.74,2.914L643.34,130.4" transform="translate(-421.912 -103.204)" fill="#005b52"/>
        <path id="Path_13" data-name="Path 13" d="M511.194,50.586l-.74,2.914,140.057,7.043" transform="translate(-428.343 -42.571)" fill="#005b52"/>
        <path id="Path_14" data-name="Path 14" d="M427.678,56.584h4.932L439.267,0h-4.685Z" transform="translate(-358.882)" fill="#005b52"/>
        <path id="Path_15" data-name="Path 15" d="M503.5,490.256l6.411-39.585-12.822.243s-9.863.486-16.028,4.614-7.4,8.257-7.4,8.257l21.946-.486-18.74-.729s1.906-4.291,7.891-6.557a43.213,43.213,0,0,1,12.082-2.671h9.37Z" transform="translate(-436.924 -442.657)" fill="#005b52"/>
        <path id="Path_16" data-name="Path 16" d="M303.949,542.645l-23.425.486a9.868,9.868,0,0,0-9.37,6.314,49.484,49.484,0,0,0-2.712,7.286l-6.411.243s-8.137-.243-13.069,8.743c-3.672,6.688-3.7,10.685-3.7,10.685l23.672.243s2.712-8.5,9.123-8.5c9.37,0,11.836,7.043,11.836,7.043s-.74-8.985-12.082-8.985c-7.644,0-9.617,7.528-9.617,7.528H250.441s1.726-8.985,5.425-11.414a14.839,14.839,0,0,1,7.4-2.428l31.069-.971,2.466-12.143-18.987.486a3.717,3.717,0,0,1,2.466-2.671,21.993,21.993,0,0,1,4.438-.486Z" transform="translate(-245.263 -520.06)" fill="#005b52"/>
      </g>
      <text id="Cargonaut" transform="translate(70.49 82.13)" fill="#005b52" font-size="29" font-family="Helvetica-LightOblique, Helvetica" font-weight="300" font-style="oblique"><tspan x="0" y="0" letter-spacing="0.02em">C</tspan><tspan y="0">a</tspan><tspan y="0" letter-spacing="-0.02em">r</tspan><tspan y="0">go</tspan><tspan y="0" letter-spacing="-0.01em">n</tspan><tspan y="0">aut</tspan></text>
      <text id="My" transform="translate(15.379 81.291)" fill="#005b52" font-size="28" font-family="BrushScriptMT, Brush Script MT"><tspan x="0" y="0">My</tspan></text>
    </g>
  </g>
</svg>
